<svg xmlns="http://www.w3.org/2000/svg" xmlns:xlink="http://www.w3.org/1999/xlink" version="1.1" id="Your_Icon" x="0px" y="0px" width="100px" height="100px" viewBox="0 0 100 100" enable-background="new 0 0 100 100" xml:space="preserve">
<path d="M94.442,2.778v5.555H5.558V2.778H0v94.443h5.558v-5.554h88.885v5.554H100V2.778H94.442z M94.442,13.891v33.331H5.558V13.891  H94.442z M5.558,86.11V52.778h88.885V86.11H5.558z"/>
<path d="M33.331,60.242c0-1.05-0.86-1.91-1.91-1.91H13.018c-1.05,0-1.91,0.86-1.91,1.91v18.403c0,1.051,0.859,1.91,1.91,1.91h18.403  c1.05,0,1.91-0.859,1.91-1.91V60.242z"/>
<path d="M61.111,60.242c0-1.05-0.859-1.91-1.909-1.91H40.798c-1.05,0-1.91,0.86-1.91,1.91v18.403c0,1.051,0.859,1.91,1.91,1.91  h18.404c1.05,0,1.909-0.859,1.909-1.91V60.242z"/>
<path d="M88.893,60.242c0-1.05-0.859-1.91-1.91-1.91H68.579c-1.05,0-1.909,0.86-1.909,1.91v18.403c0,1.051,0.859,1.91,1.909,1.91  h18.403c1.051,0,1.91-0.859,1.91-1.91V60.242z"/>
<path d="M61.111,21.357c0-1.051-0.859-1.91-1.909-1.91H40.798c-1.05,0-1.91,0.859-1.91,1.91v18.404c0,1.05,0.859,1.909,1.91,1.909  h18.404c1.05,0,1.909-0.859,1.909-1.909V21.357z"/>
<path d="M88.893,21.357c0-1.051-0.859-1.91-1.91-1.91H68.58c-1.051,0-1.91,0.859-1.91,1.91v18.404c0,1.05,0.859,1.909,1.91,1.909  h18.402c1.051,0,1.91-0.859,1.91-1.909V21.357z"/>
</svg>